%TF.GenerationSoftware,KiCad,Pcbnew,9.0.4*%
%TF.CreationDate,2025-11-17T00:44:37-05:00*%
%TF.ProjectId,new_plasma_pcb,6e65775f-706c-4617-936d-615f7063622e,rev?*%
%TF.SameCoordinates,Original*%
%TF.FileFunction,Copper,L2,Bot*%
%TF.FilePolarity,Positive*%
%FSLAX46Y46*%
G04 Gerber Fmt 4.6, Leading zero omitted, Abs format (unit mm)*
G04 Created by KiCad (PCBNEW 9.0.4) date 2025-11-17 00:44:37*
%MOMM*%
%LPD*%
G01*
G04 APERTURE LIST*
%TA.AperFunction,Conductor*%
%ADD10C,0.500000*%
%TD*%
%TA.AperFunction,EtchedComponent*%
%ADD11C,3.600000*%
%TD*%
%TA.AperFunction,EtchedComponent*%
%ADD12C,3.500000*%
%TD*%
%TA.AperFunction,EtchedComponent*%
%ADD13C,3.350000*%
%TD*%
%TA.AperFunction,EtchedComponent*%
%ADD14C,3.400000*%
%TD*%
%TA.AperFunction,EtchedComponent*%
%ADD15C,3.200000*%
%TD*%
%TA.AperFunction,ViaPad*%
%ADD16C,0.500000*%
%TD*%
%TA.AperFunction,ViaPad*%
%ADD17C,0.600000*%
%TD*%
G04 APERTURE END LIST*
D10*
%TO.N,0.3GND*%
X102100000Y-61000000D02*
G75*
G02*
X94500000Y-61000000I-3800000J0D01*
G01*
X94500000Y-61000000D02*
G75*
G02*
X102100000Y-61000000I3800000J0D01*
G01*
%TO.N,0.7GND*%
X232000000Y-135000000D02*
G75*
G02*
X225000000Y-135000000I-3500000J0D01*
G01*
X225000000Y-135000000D02*
G75*
G02*
X232000000Y-135000000I3500000J0D01*
G01*
%TO.N,0.4GND*%
X191500000Y-60500000D02*
G75*
G02*
X184500000Y-60500000I-3500000J0D01*
G01*
X184500000Y-60500000D02*
G75*
G02*
X191500000Y-60500000I3500000J0D01*
G01*
%TO.N,0.6GND*%
X151300000Y-136500000D02*
G75*
G02*
X143700000Y-136500000I-3800000J0D01*
G01*
X143700000Y-136500000D02*
G75*
G02*
X151300000Y-136500000I3800000J0D01*
G01*
%TO.N,0.5GND*%
X68200000Y-134500000D02*
G75*
G02*
X60800000Y-134500000I-3700000J0D01*
G01*
X60800000Y-134500000D02*
G75*
G02*
X68200000Y-134500000I3700000J0D01*
G01*
D11*
%TD*%
%TO.C,REF\u002A\u002A*%
X100500000Y-61000000D02*
G75*
G02*
X96500000Y-61000000I-2000000J0D01*
G01*
X96500000Y-61000000D02*
G75*
G02*
X100500000Y-61000000I2000000J0D01*
G01*
D12*
%TO.C,REF\u002A\u002A*%
X189650000Y-60500000D02*
G75*
G02*
X185650000Y-60500000I-2000000J0D01*
G01*
X185650000Y-60500000D02*
G75*
G02*
X189650000Y-60500000I2000000J0D01*
G01*
D13*
X149500000Y-136500000D02*
G75*
G02*
X145500000Y-136500000I-2000000J0D01*
G01*
X145500000Y-136500000D02*
G75*
G02*
X149500000Y-136500000I2000000J0D01*
G01*
D14*
X66500000Y-134500000D02*
G75*
G02*
X62500000Y-134500000I-2000000J0D01*
G01*
X62500000Y-134500000D02*
G75*
G02*
X66500000Y-134500000I2000000J0D01*
G01*
D15*
X230500000Y-135000000D02*
G75*
G02*
X226500000Y-135000000I-2000000J0D01*
G01*
X226500000Y-135000000D02*
G75*
G02*
X230500000Y-135000000I2000000J0D01*
G01*
%TD*%
D16*
%TO.N,0.4GND*%
X229000000Y-77500000D03*
%TO.N,0.5GND*%
X100000000Y-155500000D03*
D17*
%TO.N,0.3GND*%
X59500000Y-73000000D03*
D16*
%TO.N,0.6GND*%
X186000000Y-155000000D03*
%TO.N,0.7GND*%
X241500000Y-106500000D03*
%TD*%
D10*
%TO.N,0.4GND*%
X191500000Y-60500000D02*
X208500000Y-77500000D01*
X208500000Y-77500000D02*
X229000000Y-77500000D01*
%TO.N,0.5GND*%
X89200000Y-155500000D02*
X100000000Y-155500000D01*
X68200000Y-134500000D02*
X89200000Y-155500000D01*
%TO.N,0.3GND*%
X82500000Y-73000000D02*
X59500000Y-73000000D01*
X94500000Y-61000000D02*
X82500000Y-73000000D01*
%TO.N,0.6GND*%
X171300000Y-140300000D02*
X186000000Y-155000000D01*
X147500000Y-140300000D02*
X171300000Y-140300000D01*
%TO.N,0.7GND*%
X228500000Y-119500000D02*
X241500000Y-106500000D01*
X228500000Y-131500000D02*
X228500000Y-119500000D01*
%TD*%
M02*
